# xmcd
#
# Track frame offsets:
#	182
#	17517
#	49877
#	67647
#	89107
#	113155
#	134225
#	149377
#	164282
#	178695
#	191255
#	205985
#	226930
#	250420
#
# Disc length: 3594 seconds
#
# Revision: 1
# Processed by: cddbd v1.5.2PL0 Copyright (c) Steve Scherf et al.
# Submitted via: audiograbber 1.83.01
#
DISCID=c70e080e
DTITLE=Jimmy Witherspoon - And Panama Francis' Savoy Sultans
DYEAR=1988
DGENRE=Blues
TTITLE0=Sent for You Yesterday
TTITLE1=I Want a Little Girl
TTITLE2=Don't Miss Your Baby
TTITLE3=Good Morning Blues
TTITLE4=Goin' to Chicago
TTITLE5=Sometimes I Feel Like a Motherless Child
TTITLE6=I May Be Wrong (Boogie Woogie)
TTITLE7=Rain Keep Fallin' Down
TTITLE8=Gee Baby Ain't I Good to You
TTITLE9=Everyday I Have the Blues
TTITLE10=Welcome to Me Pretty Baby
TTITLE11=Stormy Monday Blues
TTITLE12='Taint Nobody Business
TTITLE13=I Had a Dream
EXTD=
EXTT0=
EXTT1=
EXTT2=
EXTT3=
EXTT4=
EXTT5=
EXTT6=
EXTT7=
EXTT8=
EXTT9=
EXTT10=
EXTT11=
EXTT12=
EXTT13=
PLAYORDER=
